<svg id="Layer_1" data-name="Layer 1" xmlns="http://www.w3.org/2000/svg" viewBox="0 0 897.01 876.22"><defs><style>.cls-1{fill:#fff;}.cls-2{fill:#1d2025;}.cls-3{fill:#1dd3b0;}</style></defs><g id="circle"><ellipse class="cls-1" cx="448.51" cy="438.11" rx="448.51" ry="438.11"/></g><path class="cls-2" d="M1246,517.72c0,135.22-103.29,234.76-244.15,234.76H767.1V283h234.76C1142.72,283,1246,381.56,1246,517.72ZM861,668h140.86c84.51,0,145.55-62.92,145.55-150.25,0-86.39-61-150.25-145.55-150.25H861Z" transform="translate(-503.34 -82.22)"/><path class="cls-3" d="M683.62,764.51l-.17-492L1063.27,518Zm39.23-419.64L723,692,990.84,518Z" transform="translate(-503.34 -82.22)"/><path class="cls-3" d="M683.62,783.31l-.17-529.54,408.8,264.17Zm59.66-419.69.1,309.59,238.9-155.15Z" transform="translate(-503.34 -82.22)"/></svg>